<svg width="1000" height="1000" viewBox="0 0 1000 1000" fill="none" xmlns="http://www.w3.org/2000/svg">
<mask id="mask0_2201_99" style="mask-type:luminance" maskUnits="userSpaceOnUse" x="562" y="133" width="302" height="525">
<path d="M562.667 133.823H863.073V657.333H562.667V133.823Z" fill="white"/>
</mask>
<g mask="url(#mask0_2201_99)">
<path d="M701.12 134.323C714.323 133.417 726.484 134.338 738.745 139.495C751.464 144.838 763.672 155.974 768.787 168.99L776.568 195.208C785.698 196.036 795.287 196.286 803.943 199.589L804.974 199.99C814.714 203.635 823.568 211.625 829.057 220.396C835.708 231 838.224 242.771 836.537 255.172C835.995 259.146 834.781 263.078 833.917 266.995C833.698 267.984 832.797 271.016 832.99 271.953C833.276 273.344 837.625 276.562 838.891 277.62C844.995 282.708 850.875 288.089 855.125 294.891C862.521 306.724 864.495 322.964 861.484 336.458C859.297 346.276 854.922 354.198 848.219 361.682C845.682 364.526 842.708 367.073 840.328 370.042C839.922 370.547 838.375 372.453 838.333 372.948C838.318 373.12 839.667 375.172 839.813 375.422L845.651 385.646C848.677 391.578 850.412 397.99 851.182 404.578C853.146 421.417 848.953 437.365 838.25 450.604C829.865 460.979 818.354 468.167 805.375 471.167C799.516 472.526 793.385 472.932 787.412 473.599C791.714 491.312 794.396 507.292 789.182 525.219C783.802 543.755 769.375 562.573 751.5 570.568C746.474 572.818 738.031 574.776 734.323 578.76C731.807 581.464 730.734 585.031 729.406 588.38C726.688 595.208 722.776 603.234 717.318 608.302C713.531 611.818 708.953 614.646 704.432 617.115C696.943 620.786 688.698 621.104 680.682 622.875C671.995 624.786 670.63 630.417 666.245 637.042C659.771 646.818 651.594 653.531 639.839 655.76C625.219 658.526 609.693 657.724 597.214 648.937C588.188 642.578 582.141 633.089 580.083 622.339C577.38 608.234 578.677 592.406 578.651 578.042L579.057 459.953L578.771 430.375C578.698 428.25 578.875 423.526 577.906 421.698C575.63 417.411 566.406 420.542 564.354 417.094C562.76 414.427 563.162 408.807 563.13 405.677V374.594C563.151 369.141 562.448 362.682 563.849 357.401C566.573 355.906 570.38 356.453 573.432 356.031C579.901 355.151 578.802 348.141 578.787 343.01L578.547 257.922C578.537 240.13 577.073 221.094 580.5 203.609C582.25 194.677 585.745 186.771 591.255 179.516C603.682 163.151 623.531 154.406 643.901 156.312C648.125 156.713 655.25 159.036 659.083 158.12C662.141 157.385 665.063 153.495 667.297 151.469C677.37 142.339 687.51 136.25 701.12 134.323Z" fill="white"/>
</g>
<path d="M278.026 159.026C308.932 157.667 339.781 168.443 363.693 188.063C368.698 192.172 373.391 196.641 377.812 201.38C380.432 204.188 383.25 207.224 384.229 211.063C386.068 218.234 384.964 228.089 384.969 235.589L384.708 292.547L384.693 523.474L384.125 588.255C383.911 603.354 383.047 618.813 384.594 633.844C374.339 628.536 365.578 621.12 356.521 613.974L314.458 578.875L300.99 566.661C238.573 508.823 180.016 435.266 158.229 350.896C154.276 335.583 151.318 319.849 150.661 304.005C149.13 267.052 159.458 230.865 184.573 203.354C209.604 175.927 241.318 160.542 278.026 159.026ZM297.714 187.323C290.906 187.51 285.391 188.87 279.776 192.906C277.156 194.786 275.427 196.313 273.469 198.969L272.859 199.766C267.844 206.411 266.437 215.698 267.693 223.854C268.833 231.24 272.927 237.776 278.562 242.479C285.214 248.026 290.906 249.62 299.526 249.297C308.854 247.547 317.286 244.313 322.818 236C326.771 230.068 329.437 221.443 328.172 214.255C327.281 209.161 324.26 202.719 321.021 198.688L320.479 197.99C317.151 193.807 311.948 190.698 307.01 188.87L306.344 188.615C303.542 187.568 300.682 187.25 297.714 187.323ZM323.5 261.344C321.271 262.484 318.083 264.453 317.255 267.016L316.979 268.036L316.667 269.01C315.719 272.328 316.24 277.052 317.995 279.896C319.375 282.125 320.792 283.917 323.484 284.448C326.057 284.958 328.557 284.797 331.115 284.349C334.625 282.708 336.63 281.214 338.76 277.927C339.333 273.688 340.083 269.677 337.37 265.974C335.531 263.469 332.437 261.698 329.391 261.307C327.448 261.057 325.448 261.307 323.5 261.344Z" fill="white"/>
<path d="M507.422 358.609L508.76 356.552C511.411 354.776 518.682 355.536 521.901 356.135C523.344 356.401 525.125 356.823 525.969 358.063C526.792 359.281 526.938 360.505 527.208 361.917L528.568 368.745C529.896 369.536 532.031 369.422 533.583 369.5C539.297 369.776 546.958 368.38 552.297 369.979C552.677 371.938 552.641 373.292 552.297 375.245C548.271 377.823 529.005 373.714 527.818 377.823C527.323 379.536 527.557 381.927 527.536 383.745L527.604 397.115C534.24 397.167 541.172 396.849 547.76 397.505C549.521 397.682 551.031 397.609 552.359 398.839C552.359 400.734 552.755 401.552 551.396 402.943L528.854 403.901C524.797 409.099 531.698 418.703 522.135 419.755C517.266 420.292 512.167 420.557 507.635 418.443C506.401 418.052 506.182 418.141 504.969 418.427L505.13 359.385L506.229 359.698L507.422 358.609Z" fill="white"/>
<path d="M507.422 358.609C509.026 364.083 508.214 370.781 508.219 376.464L508.125 404.172C507.953 408.849 507.12 413.792 507.635 418.438C506.401 418.052 506.182 418.141 504.969 418.427L505.13 359.385L506.229 359.698L507.422 358.609Z" fill="black"/>
<mask id="mask1_2201_99" style="mask-type:luminance" maskUnits="userSpaceOnUse" x="137" y="146" width="369" height="504">
<path d="M137.073 146.667H505.333V649.333H137.073V146.667Z" fill="white"/>
</mask>
<g mask="url(#mask1_2201_99)">
<path d="M504.969 418.427L504.568 418.74C501.323 420.583 469.432 419.776 464.141 418.964C450.135 416.812 445.917 408.344 438.224 397.948C433.76 396.51 427.281 397.432 422.594 397.464C415.505 397.516 406.016 396.417 399.255 398.318C397.766 399.875 397.943 402.151 397.818 404.26C396.453 427.411 397.531 451.13 397.573 474.328L397.62 597.349V628.422C397.615 632.667 398.526 639.885 396.844 643.693C396.031 645.526 394.323 647.172 392.385 647.776C389.458 648.693 385.828 646.755 383.359 645.349C378.49 642.573 373.87 638.943 369.266 635.734L333.854 609.026C284.13 569.677 239.089 525.182 202.297 473.365C178.927 440.448 158.677 403.521 147.776 364.448C143.63 349.604 140.026 334.276 138.151 318.953C137.156 310.833 137.125 302.411 137.208 294.24C137.286 286.854 137.26 279.359 138.224 272.026C140.531 254.385 146.214 236.729 155.042 221.266C173.052 189.734 203.516 163.141 239 153.62C276.964 143.432 318.948 146.266 353.276 166.365C365.021 173.24 376.714 182.255 386.063 192.193C389.026 195.349 392.214 198.698 394.078 202.656C396.026 206.797 396.995 211.099 397.438 215.625C397.943 220.771 397.656 226.172 397.651 231.339L397.646 257.578L397.526 344.094L397.552 366.521C397.583 370.437 397.245 374.729 398.214 378.526C399.677 379.51 401.974 379.604 403.719 379.724C407.333 379.969 436.948 380.604 438.318 379.573C439.458 378.714 441.568 373.573 442.474 372.078C444.49 368.771 447.224 365.224 450.177 362.703C452.667 360.578 456.089 358.75 459.229 357.839C469.313 354.917 481.266 355.818 491.703 355.875C494.807 355.891 498.651 355.458 501.656 356.042C503.667 356.427 504.146 357.802 505.13 359.385L504.969 418.427ZM277.536 162.078C241.151 163.557 209.719 178.604 184.906 205.411C160.016 232.312 149.776 267.693 151.297 303.818C151.948 319.307 154.875 334.698 158.797 349.661C180.391 432.151 238.432 504.062 300.302 560.615L313.651 572.557L355.344 606.875C364.318 613.859 373 621.104 383.167 626.302C381.635 611.599 382.495 596.49 382.703 581.724L383.266 518.391L383.281 292.62L383.536 236.932C383.531 229.599 384.63 219.964 382.807 212.948C381.833 209.198 379.042 206.229 376.448 203.484C372.063 198.854 367.411 194.479 362.453 190.469C338.75 171.281 308.172 160.75 277.536 162.078Z" fill="white"/>
</g>
<path d="M847.083 315.995C849.422 326.865 846.818 338.156 840.802 347.323C834.687 356.635 825.234 363.458 814.255 365.708C809.953 366.589 802.156 367.75 798.271 365.594C795.875 362.115 796.901 353.911 796.963 349.719C805.13 350.953 813.49 351.339 821.26 347.995C830.12 344.182 838.172 337.104 841.286 327.745C842.302 324.682 842.292 320.875 843.588 318.031C844.307 316.453 845.552 316.479 847.083 315.995Z" fill="black"/>
<path d="M821.432 380.401C825.828 381.922 829.031 387.026 830.99 391.005C836.417 402.036 838.016 414.714 833.854 426.401C829.833 437.682 821.073 448.63 810.146 453.818C801.245 458.042 787.703 460.385 778.339 456.682C774.714 455.25 770.875 451.865 769.125 448.312L769.714 448.198L794.302 444.745C805.161 442.099 814.703 434.547 820.323 424.995C824.688 417.573 826.958 408.682 827.01 400.109C827.026 397.786 827.13 394.974 826.453 392.74C825.276 388.828 822.505 385.245 821.625 381.365L821.432 380.401Z" fill="black"/>
<path d="M813.286 226.677C819.344 234.151 822.005 242 821.219 251.708C820.375 262.047 814.755 272.708 806.609 279.135C798.672 285.401 787.812 287.938 777.838 286.745C767.271 285.474 758.641 279.734 752.292 271.37C748.51 266.385 747.437 260.755 745.141 255.083C740.984 244.818 733.213 236.542 725.302 229.047C739.713 229.167 753.708 253.479 763.63 262.318C770.865 268.766 779.682 271.505 789.266 270.781C796.5 270.234 803.599 266.141 808.234 260.635C813.484 254.406 815.771 246.542 815.088 238.469C814.755 234.505 813.625 230.677 813.286 226.677Z" fill="black"/>
<path d="M740.896 448.016C754.865 453.646 765.734 463.37 771.74 477.323C778.479 492.984 779.698 509.734 773.141 525.646C766.911 540.781 754.969 553.734 739.682 559.922C737.24 560.906 735.177 561.74 732.495 561.318C730.281 558.953 729.833 554.521 728.734 551.49C727.391 547.797 724.922 544.177 722.922 540.786C728.807 540.047 734.526 538.333 739.688 535.359C749.615 529.641 756.974 520.063 759.969 509.021C764.354 492.87 761.016 473.453 750.88 460.016C748.104 456.333 743.495 452.969 741.385 448.984L740.896 448.016Z" fill="black"/>
<path d="M593.797 494.349C593.969 499.635 592.349 515.974 596.198 519.276C600.635 523.089 608.443 524.042 609.297 530.922C609.875 535.568 609.677 540.552 609.667 545.234L609.12 573.297L609.766 602C609.969 607.656 609.224 613.537 611.229 618.927C613.766 625.755 618.099 630.74 624.698 633.932C632.422 637.672 640.542 636.594 648.656 635.26L648.156 635.708C642.016 641.162 632.792 643.74 624.609 643.089C615.552 642.375 607.042 638.979 601.115 631.896C597.891 628.047 595.255 622.922 594.328 617.964C593.427 613.162 593.682 607.844 593.583 602.969L593.266 573.969L593.016 525.349C593.042 515.073 592.896 504.589 593.797 494.349Z" fill="black"/>
<path d="M722.922 540.786C719.281 536.547 715.255 532.156 710.641 528.958C707.839 527.026 703.068 525.469 701.281 522.516C700.385 521.016 700.901 516.781 700.901 514.844C700.896 497.839 691.943 486.411 680.594 474.844C682.214 472.635 685.865 470.87 688.094 469.172C694.063 464.62 699.521 458.979 703.552 452.63C705.63 449.359 707.464 443.458 711.391 442.177C719.813 439.437 733.391 444.115 740.896 448.016L741.385 448.984C743.495 452.969 748.104 456.333 750.88 460.016C761.016 473.453 764.354 492.87 759.969 509.021C756.974 520.062 749.615 529.641 739.688 535.359C734.526 538.333 728.807 540.047 722.922 540.786Z" fill="black"/>
<path d="M655.531 361.292C666.552 362.37 677.042 367.979 684.573 375.979C694.234 386.234 701.182 401.417 700.672 415.703C700.109 431.307 692.755 445.891 681.417 456.49C671.141 466.104 658.37 470.115 644.448 469.641C629.417 469.125 615.719 463.594 605.427 452.443C600.313 446.901 594.474 438.573 593.141 431.005C591.766 423.234 592.849 414.359 592.948 406.453L593.052 364.797L593.016 266.604L593.13 216.839C593.787 203.573 598.969 192.995 608.766 184.115L608.953 242.656L608.948 345.234L608.953 382.646C608.953 394.099 608.443 405.422 610.755 416.714C612.609 425.745 617.208 434.427 623.912 440.802C630.5 447.073 638.87 450.646 648.057 450.37C658.406 450.057 669.01 446.401 676.073 438.583C684.057 429.745 685.958 416.37 685.214 404.901C684.406 392.479 678.958 379.646 669.505 371.401L655.531 361.292Z" fill="black"/>
<path d="M592.901 494.349L592.906 473.219C592.911 470.099 592.417 466.068 593.26 463.068C594.781 462.87 595.573 463.047 596.865 463.948C599.458 465.76 601.724 468.208 604.266 470.135C609.875 474.391 616.495 477.995 623.219 480.094C631 482.521 639.521 484.24 647.719 483.776C651.698 483.547 656.193 482.542 660.141 483.135C674.703 485.313 683.88 497.068 685.406 511.24C686.005 516.766 685.948 521.646 684.823 527.12C680.536 537.839 674.661 546.005 663.833 550.74C658.26 553.172 652.802 553.74 646.781 553.771L638.953 552.74C636.839 552.453 634.813 552.62 633.031 553.912C631.542 554.99 630.286 556.828 630.005 558.667C629.708 560.63 630.255 562.167 631.495 563.682C634.74 567.651 640.911 568.224 645.75 568.573C659.495 569.573 673.438 564.865 683.688 555.646C686.583 553.037 689.141 550.057 691.396 546.88C692.813 544.88 694.307 541.609 696.188 540.104C696.901 539.531 697.302 539.422 698.214 539.448C701.922 539.552 705.906 544.453 708.208 547.12C714.589 554.526 718.318 564.578 717.411 574.391C717.276 575.859 716.906 577.281 716.505 578.698C714.458 588.156 709.417 596.729 701.182 602.094C696.302 605.271 687.37 609.594 681.438 608.089C678.682 607.391 676.62 605.292 675.26 602.891C673.958 600.917 673.094 599.406 670.651 598.839C668.125 598.245 666.214 598.583 664.031 599.922C661.99 602.781 661.464 605.708 660.729 609.063C658.344 619.927 657.323 628.427 647.755 635.26C639.651 636.594 631.526 637.672 623.802 633.932C617.203 630.74 612.87 625.755 610.333 618.927C608.328 613.537 609.073 607.656 608.87 602L608.224 573.297L608.771 545.234C608.781 540.552 608.979 535.568 608.401 530.922C607.547 524.042 599.74 523.089 595.302 519.276C591.453 515.974 593.073 499.635 592.901 494.349Z" fill="black"/>
<path d="M646.781 553.771C646.708 550.443 646.062 547.531 647.208 544.427C649.906 541.901 653.667 542.344 657.187 542.297C662.12 542.229 666.578 542.5 671.25 540.677C675.562 539 679.193 536.208 681.026 531.87C681.526 530.682 681.937 529.714 682.698 528.656L683.927 528.911C679.641 539.635 674.661 547.797 663.833 552.531C658.26 554.964 652.802 553.74 646.781 553.771Z" fill="black"/>
<path d="M675.26 603.787L680.542 603C694.021 600.938 704.854 594.073 709.453 580.87C710.24 578.599 710.234 574.979 711.573 573.146L712.537 573.073C714.807 574.307 715.547 577.302 716.505 579.594C714.458 589.052 709.417 597.625 701.182 602.99C696.302 606.167 687.37 610.49 681.438 608.984C678.682 608.287 676.62 606.188 675.26 603.787Z" fill="black"/>
<path d="M608.766 184.115C615.776 176.542 625.531 172.198 635.849 171.74C647.391 171.224 656.932 174.568 665.969 181.656C668.391 183.552 670.984 186.167 673.885 187.286C676.443 188.276 678.953 187.271 680.734 185.318C682.193 183.724 682.927 181.995 682.745 179.833C682.26 174.198 671.01 169.812 674.948 164.953C681.594 156.755 695.099 150.302 705.552 149.505C719.38 148.448 733.359 152.208 743.979 161.359C754.005 170 759.589 182.979 760.474 196.036C761.057 204.568 759.188 213.224 755.182 220.766C753.854 223.255 751.583 226.187 751.214 229.005C750.911 231.349 751.906 233.505 753.609 235.073C755.37 236.693 756.958 237.245 759.307 237.266C764.156 235.469 767.745 229.854 769.786 225.302C772.01 220.333 771.589 213.792 777.552 211.766C784.411 209.427 795.953 212.49 802.089 215.844C806.839 218.437 811.875 222.562 814.182 227.573C814.521 231.573 815.651 235.401 815.99 239.365C816.667 247.437 814.38 255.302 809.13 261.531C804.495 267.036 797.396 271.13 790.161 271.677C780.578 272.401 771.76 269.661 764.526 263.214C754.604 254.375 740.609 230.062 726.198 229.943C710.536 223.828 694.208 219.109 677.922 226.229C664.292 232.193 653.583 242.995 648.156 256.891C645.552 263.552 644.083 281.839 647.359 288.401C648.214 290.115 649.781 291.401 651.563 292.057C653.406 292.734 656.635 292.276 658.276 291.224C659.703 290.312 660.604 288.818 660.875 287.151C661.938 280.729 659.927 273.865 660.896 267.339L661.021 266.437C662.349 257.719 668.188 249.651 675.229 244.536C679.948 241.109 685.464 238.792 691.229 237.891L692.083 237.745C701.422 236.318 711.255 238.578 718.839 244.26C730.161 252.745 731.458 264.198 737.786 275.786C748.552 295.5 770.521 305.604 792.615 302.443L796.693 301.656C801.849 300.547 807.422 297.937 811.786 295.01C814.828 292.969 819.182 288.568 822.682 287.755C824.797 287.266 826.547 287.953 828.313 289.036C838.339 295.203 843.75 305.99 847.083 316.891C845.552 317.375 844.307 317.349 843.589 318.927C842.292 321.771 842.302 325.578 841.286 328.641C838.172 338 830.12 345.078 821.26 348.891C813.49 352.24 805.13 351.849 796.964 350.615C792.323 335.604 786.37 324.245 771.833 316.651C769.229 315.292 765.964 313.755 763.005 314.833C760.802 315.635 759.474 317.328 758.646 319.464C755.479 327.609 767.094 330.37 771.823 334.646C775.146 337.651 777.026 341.021 778.786 345.078C782.333 351.87 782.854 359.885 780.615 367.193C778.156 375.224 771.667 382.161 764.276 385.969C761.604 387.349 758.974 388.214 755.99 388.656L755.063 388.802C751.255 389.328 747.25 388.74 743.516 387.943C739.203 387.016 735.609 385.573 731.349 387.453L731.141 387.87C730.005 390.479 729 395.016 730.333 397.687C731.688 400.385 736.161 401.677 738.828 402.229C754.042 405.401 769.385 403.37 780.974 392.333C784.88 388.62 787.88 384.302 792.391 381.292C798.224 381.651 803.745 382.875 809.641 382.281C813.328 381.906 818.99 380.016 822.328 381.297L822.521 382.26C823.401 386.141 826.172 389.724 827.349 393.635C828.026 395.87 827.922 398.682 827.906 401.005C827.854 409.578 825.583 418.474 821.219 425.891C815.599 435.448 806.057 442.995 795.198 445.641L770.609 449.094L770.021 449.208C758.797 439.536 743.547 430.812 728.724 428.781C725.245 428.302 718.411 429.161 715.521 427.49C714.432 426.859 714.635 425.141 714.729 424.052C715.734 412.156 715.193 401.182 711.068 389.865C704.75 372.542 690.333 358.036 673.589 350.583C658.974 344.083 639.922 341.583 624.771 347.932C622.557 348.859 620.161 350.068 619.359 352.516C618.672 354.615 619.104 356.76 620 358.719C620.833 360.547 622.276 361.964 624.339 362.255C626.953 362.63 630.214 361.594 632.766 360.99C640.672 359.115 647.792 358.49 655.531 361.292L669.505 371.401C678.958 379.646 684.406 392.479 685.214 404.901C685.958 416.375 684.057 429.745 676.073 438.583C669.01 446.401 658.406 450.057 648.057 450.37C638.87 450.646 630.5 447.073 623.911 440.802C617.208 434.427 612.609 425.745 610.755 416.714C608.443 405.422 608.953 394.099 608.953 382.646L608.948 345.234L608.953 242.656L608.766 184.115Z" fill="black"/>
<path d="M779.682 345.974C783.229 352.766 783.75 360.781 781.51 368.089C779.052 376.125 772.563 383.057 765.177 386.865C762.5 388.245 759.87 389.109 756.885 389.552L755.958 389.698C752.151 390.224 748.146 389.635 744.412 388.839C740.099 387.912 736.505 386.469 732.245 388.349L731.781 387.859C730.167 385.693 729.787 381.505 730.354 378.932C730.948 376.271 732.484 374.104 734.688 372.568C738.599 372.797 742.281 375.693 746.297 376.443C754.063 377.885 761.464 376.37 767.901 371.797C771.656 369.135 775.787 364.844 777.292 360.448C778.734 356.24 778.958 350.474 779.682 345.974Z" fill="black"/>
<path d="M218.559 801.223H180.309L173.038 823.035H149.85L189.267 717.202H209.475L249.08 823.035H225.892L218.559 801.223ZM186.205 783.556H212.663L199.371 743.952L186.205 783.556Z" fill="white"/>
<path d="M334.768 787.785C333.946 799.176 329.737 808.139 322.143 814.681C314.56 821.223 304.565 824.494 292.164 824.494C278.591 824.494 267.92 819.926 260.143 810.785C252.362 801.65 248.477 789.108 248.477 773.16V766.702C248.477 756.525 250.268 747.556 253.852 739.806C257.435 732.056 262.56 726.113 269.227 721.973C275.893 717.822 283.633 715.744 292.456 715.744C304.664 715.744 314.498 719.014 321.956 725.556C329.425 732.098 333.748 741.28 334.914 753.098H313.102C312.571 746.264 310.67 741.317 307.393 738.244C304.128 735.16 299.149 733.619 292.456 733.619C285.19 733.619 279.753 736.223 276.143 741.431C272.529 746.639 270.675 754.723 270.581 765.681V773.681C270.581 785.113 272.31 793.473 275.768 798.764C279.237 804.046 284.706 806.681 292.164 806.681C298.899 806.681 303.925 805.15 307.248 802.077C310.565 798.994 312.466 794.233 312.956 787.785H334.768Z" fill="white"/>
<path d="M401.549 801.223H363.299L356.028 823.035H332.841L372.258 717.202H392.466L432.07 823.035H408.883L401.549 801.223ZM369.195 783.556H395.653L382.362 743.952L369.195 783.556Z" fill="white"/>
<path d="M434.676 823.035V717.202H467.238C476.54 717.202 484.863 719.301 492.196 723.494C499.54 727.676 505.269 733.634 509.384 741.369C513.509 749.093 515.571 757.879 515.571 767.723V772.577C515.571 782.426 513.54 791.176 509.488 798.827C505.446 806.483 499.743 812.421 492.384 816.64C485.019 820.864 476.707 822.994 467.446 823.035H434.676ZM456.467 734.869V805.515H467.009C475.535 805.515 482.051 802.733 486.551 797.16C491.061 791.593 493.368 783.619 493.467 773.244V767.64C493.467 756.89 491.238 748.744 486.78 743.202C482.321 737.65 475.806 734.869 467.238 734.869H456.467Z" fill="white"/>
<path d="M587.802 777.16H545.927V805.515H595.073V823.035H524.135V717.202H594.927V734.869H545.927V760.077H587.802V777.16Z" fill="white"/>
<path d="M629.062 717.202L656.25 793.952L683.292 717.202H711.937V823.035H690.062V794.098L692.25 744.16L663.667 823.035H648.687L620.208 744.244L622.375 794.098V823.035H600.583V717.202H629.062Z" fill="white"/>
<path d="M746.888 823.035H725.075V717.202H746.888V823.035Z" fill="white"/>
<path d="M819.553 801.223H781.303L774.032 823.035H750.845L790.261 717.202H810.47L850.074 823.035H826.886L819.553 801.223ZM787.199 783.556H813.657L800.366 743.952L787.199 783.556Z" fill="white"/>
<path d="M269.992 930.95V861.034H289.742C295.826 861.034 301.201 862.383 305.867 865.075C310.545 867.773 314.159 871.596 316.701 876.555C319.242 881.513 320.524 887.211 320.555 893.638V898.117C320.555 904.7 319.284 910.482 316.742 915.45C314.201 920.409 310.565 924.216 305.847 926.867C301.123 929.523 295.623 930.883 289.347 930.95H269.992ZM279.222 868.638V923.409H288.93C296.024 923.409 301.545 921.2 305.492 916.784C309.451 912.367 311.43 906.075 311.43 897.909V893.825C311.43 885.898 309.56 879.732 305.826 875.325C302.102 870.924 296.815 868.695 289.972 868.638H279.222Z" fill="white"/>
<path d="M369.172 898.638H338.88V923.409H374.068V930.95H329.651V861.034H373.589V868.638H338.88V891.096H369.172V898.638Z" fill="white"/>
<path d="M409.51 923.409H442.656V930.95H400.239V861.034H409.51V923.409Z" fill="white"/>
<path d="M458.224 930.95H449.015V861.034H458.224V930.95Z" fill="white"/>
<path d="M470.251 930.95V861.034H490.001C496.085 861.034 501.46 862.383 506.126 865.075C510.803 867.773 514.418 871.596 516.96 876.555C519.501 881.513 520.782 887.211 520.814 893.638V898.117C520.814 904.7 519.543 910.482 517.001 915.45C514.46 920.409 510.824 924.216 506.105 926.867C501.381 929.523 495.881 930.883 489.605 930.95H470.251ZM479.48 868.638V923.409H489.189C496.282 923.409 501.803 921.2 505.751 916.784C509.71 912.367 511.689 906.075 511.689 897.909V893.825C511.689 885.898 509.819 879.732 506.085 875.325C502.361 870.924 497.074 868.695 490.23 868.638H479.48Z" fill="white"/>
<path d="M569.431 898.638H539.139V923.409H574.327V930.95H529.91V861.034H573.848V868.638H539.139V891.096H569.431V898.638Z" fill="white"/>
<path d="M606.621 902.68H590.204V930.95H580.934V861.034H604.079C611.954 861.034 618.007 862.836 622.246 866.43C626.496 870.013 628.621 875.232 628.621 882.075C628.621 886.424 627.439 890.216 625.079 893.45C622.73 896.69 619.46 899.107 615.267 900.7L631.684 930.367V930.95H621.788L606.621 902.68ZM590.204 895.138H604.371C608.939 895.138 612.579 893.961 615.288 891.596C617.996 889.221 619.35 886.049 619.35 882.075C619.35 877.758 618.059 874.445 615.475 872.138C612.902 869.836 609.189 868.669 604.329 868.638H590.204V895.138Z" fill="white"/>
<path d="M676.218 898.638H645.926V923.409H681.114V930.95H636.697V861.034H680.635V868.638H645.926V891.096H676.218V898.638Z" fill="white"/>
<path d="M708.366 899.784C700.46 897.523 694.705 894.737 691.096 891.43C687.497 888.112 685.7 884.013 685.7 879.138C685.7 873.638 687.898 869.091 692.304 865.492C696.705 861.883 702.429 860.075 709.471 860.075C714.273 860.075 718.559 861.008 722.325 862.867C726.085 864.732 728.997 867.294 731.054 870.555C733.122 873.82 734.158 877.388 734.158 881.263H724.887C724.887 877.029 723.538 873.7 720.846 871.284C718.163 868.867 714.372 867.659 709.471 867.659C704.929 867.659 701.387 868.669 698.846 870.68C696.304 872.68 695.033 875.45 695.033 878.992C695.033 881.841 696.241 884.253 698.658 886.221C701.075 888.195 705.184 890.003 710.991 891.638C716.794 893.263 721.335 895.065 724.616 897.034C727.908 898.992 730.346 901.284 731.929 903.909C733.512 906.534 734.304 909.628 734.304 913.18C734.304 918.846 732.096 923.388 727.679 926.805C723.262 930.211 717.351 931.909 709.95 931.909C705.158 931.909 700.679 930.992 696.512 929.159C692.346 927.315 689.127 924.794 686.866 921.596C684.616 918.388 683.491 914.753 683.491 910.68H692.762C692.762 914.919 694.325 918.258 697.45 920.7C700.575 923.148 704.741 924.367 709.95 924.367C714.825 924.367 718.554 923.378 721.137 921.388C723.731 919.404 725.033 916.7 725.033 913.284C725.033 909.857 723.83 907.211 721.429 905.346C719.023 903.471 714.669 901.617 708.366 899.784Z" fill="white"/>
</svg>
