<svg xmlns="http://www.w3.org/2000/svg" xmlns:xlink="http://www.w3.org/1999/xlink" width="1000" zoomAndPan="magnify" viewBox="0 0 750 749.999995" height="1000" preserveAspectRatio="xMidYMid meet" version="1.0"><defs><g/><clipPath id="0601e370c2"><path d="M 422 100.367188 L 647.304688 100.367188 L 647.304688 493 L 422 493 Z M 422 100.367188 " clip-rule="nonzero"/></clipPath><clipPath id="54250e7d91"><path d="M 102.804688 110 L 379 110 L 379 487 L 102.804688 487 Z M 102.804688 110 " clip-rule="nonzero"/></clipPath></defs><g clip-path="url(#0601e370c2)"><path fill="#050f21" d="M 525.839844 100.742188 C 535.742188 100.0625 544.863281 100.753906 554.058594 104.621094 C 563.597656 108.628906 572.753906 116.980469 576.589844 126.742188 L 582.425781 146.40625 C 589.273438 147.027344 596.464844 147.214844 602.957031 149.691406 L 603.730469 149.992188 C 611.035156 152.726562 617.675781 158.71875 621.792969 165.296875 C 626.78125 173.25 628.667969 182.078125 627.402344 191.378906 C 626.996094 194.359375 626.085938 197.308594 625.4375 200.246094 C 625.273438 200.988281 624.597656 203.261719 624.742188 203.964844 C 624.957031 205.007812 628.21875 207.421875 629.167969 208.214844 C 633.746094 212.03125 638.15625 216.066406 641.34375 221.167969 C 646.890625 230.042969 648.371094 242.222656 646.113281 252.34375 C 644.472656 259.707031 641.191406 265.648438 636.164062 271.261719 C 634.261719 273.394531 632.03125 275.304688 630.246094 277.53125 C 629.941406 277.910156 628.78125 279.339844 628.75 279.710938 C 628.738281 279.839844 629.75 281.378906 629.859375 281.566406 L 634.238281 289.234375 C 636.507812 293.683594 637.808594 298.492188 638.386719 303.433594 C 639.859375 316.0625 636.714844 328.023438 628.6875 337.953125 C 622.398438 345.734375 613.765625 351.125 604.03125 353.375 C 599.636719 354.394531 595.039062 354.699219 590.558594 355.199219 C 593.785156 368.484375 595.796875 380.46875 591.886719 393.914062 C 587.851562 407.816406 577.03125 421.929688 563.625 427.925781 C 559.855469 429.613281 553.523438 431.082031 550.742188 434.070312 C 548.855469 436.097656 548.050781 438.773438 547.054688 441.285156 C 545.015625 446.40625 542.082031 452.425781 537.988281 456.226562 C 535.148438 458.863281 531.714844 460.984375 528.324219 462.835938 C 522.707031 465.589844 516.523438 465.828125 510.511719 467.15625 C 503.996094 468.589844 502.972656 472.8125 499.683594 477.78125 C 494.828125 485.113281 488.695312 490.148438 479.878906 491.820312 C 468.914062 493.894531 457.269531 493.292969 447.910156 486.703125 C 441.140625 481.933594 436.605469 474.816406 435.0625 466.753906 C 433.035156 456.175781 434.007812 444.304688 433.988281 433.53125 L 434.292969 344.964844 L 434.078125 322.78125 C 434.023438 321.1875 434.15625 317.644531 433.429688 316.273438 C 431.722656 313.058594 424.804688 315.40625 423.265625 312.820312 C 422.070312 310.820312 422.371094 306.605469 422.347656 304.257812 L 422.347656 280.945312 C 422.363281 276.855469 421.835938 272.011719 422.886719 268.050781 C 424.929688 266.929688 427.785156 267.339844 430.074219 267.023438 C 434.925781 266.363281 434.101562 261.105469 434.089844 257.257812 L 433.910156 193.441406 C 433.902344 180.097656 432.804688 165.820312 435.375 152.707031 C 436.6875 146.007812 439.308594 140.078125 443.441406 134.636719 C 452.761719 122.363281 467.648438 115.804688 482.925781 117.234375 C 486.09375 117.535156 491.4375 119.277344 494.3125 118.589844 C 496.605469 118.039062 498.796875 115.121094 500.472656 113.601562 C 508.027344 106.753906 515.632812 102.1875 525.839844 100.742188 Z M 525.839844 100.742188 " fill-opacity="1" fill-rule="nonzero"/></g><path fill="#1c4499" d="M 208.519531 119.269531 C 231.699219 118.25 254.835938 126.332031 272.769531 141.046875 C 276.523438 144.128906 280.042969 147.480469 283.359375 151.035156 C 285.324219 153.140625 287.4375 155.417969 288.171875 158.296875 C 289.550781 163.675781 288.722656 171.066406 288.726562 176.691406 L 288.53125 219.410156 L 288.519531 392.605469 L 288.09375 441.191406 C 287.933594 452.515625 287.285156 464.109375 288.445312 475.382812 C 280.753906 471.402344 274.183594 465.839844 267.390625 460.480469 L 235.84375 434.15625 L 225.742188 424.996094 C 178.929688 381.617188 135.011719 326.449219 118.671875 263.171875 C 115.707031 251.6875 113.488281 239.886719 112.996094 228.003906 C 111.847656 200.289062 119.59375 173.148438 138.429688 152.515625 C 157.203125 131.945312 180.988281 120.40625 208.519531 119.269531 Z M 223.285156 140.492188 C 218.179688 140.632812 214.042969 141.652344 209.832031 144.679688 C 207.867188 146.089844 206.570312 147.234375 205.101562 149.226562 L 204.644531 149.824219 C 200.882812 154.808594 199.828125 161.773438 200.769531 167.890625 C 201.625 173.429688 204.695312 178.332031 208.921875 181.859375 C 213.910156 186.019531 218.179688 187.214844 224.644531 186.972656 C 231.640625 185.660156 237.964844 183.234375 242.113281 177 C 245.078125 172.550781 247.078125 166.082031 246.128906 160.691406 C 245.460938 156.871094 243.195312 152.039062 240.765625 149.015625 L 240.359375 148.492188 C 237.863281 145.355469 233.960938 143.023438 230.257812 141.652344 L 229.757812 141.460938 C 227.65625 140.675781 225.511719 140.4375 223.285156 140.492188 Z M 242.625 196.007812 C 240.953125 196.863281 238.5625 198.339844 237.941406 200.261719 L 237.734375 201.027344 L 237.5 201.757812 C 236.789062 204.246094 237.179688 207.789062 238.496094 209.921875 C 239.53125 211.59375 240.59375 212.9375 242.613281 213.335938 C 244.542969 213.71875 246.417969 213.597656 248.335938 213.261719 C 250.96875 212.03125 252.472656 210.910156 254.070312 208.445312 C 254.5 205.265625 255.0625 202.257812 253.027344 199.480469 C 251.648438 197.601562 249.328125 196.273438 247.042969 195.980469 C 245.585938 195.792969 244.085938 195.980469 242.625 196.007812 Z M 242.625 196.007812 " fill-opacity="1" fill-rule="nonzero"/><path fill="#050f21" d="M 380.566406 268.957031 L 381.570312 267.414062 C 383.558594 266.082031 389.011719 266.652344 391.425781 267.101562 C 392.507812 267.300781 393.84375 267.617188 394.476562 268.546875 C 395.09375 269.460938 395.203125 270.378906 395.40625 271.4375 L 396.425781 276.558594 C 397.421875 277.152344 399.023438 277.066406 400.1875 277.125 C 404.472656 277.332031 410.21875 276.285156 414.222656 277.484375 C 414.507812 278.953125 414.480469 279.96875 414.222656 281.433594 C 411.203125 283.367188 396.753906 280.285156 395.863281 283.367188 C 395.492188 284.652344 395.667969 286.445312 395.652344 287.808594 L 395.703125 297.835938 C 400.679688 297.875 405.878906 297.636719 410.820312 298.128906 C 412.140625 298.261719 413.273438 298.207031 414.269531 299.128906 C 414.269531 300.550781 414.566406 301.164062 413.546875 302.207031 L 396.640625 302.925781 C 393.597656 306.824219 398.773438 314.027344 391.601562 314.816406 C 387.949219 315.21875 384.125 315.417969 380.726562 313.832031 C 379.800781 313.539062 379.636719 313.605469 378.726562 313.820312 L 378.847656 269.539062 L 379.671875 269.773438 Z M 380.566406 268.957031 " fill-opacity="1" fill-rule="nonzero"/><path fill="#000000" d="M 380.566406 268.957031 C 381.769531 273.0625 381.160156 278.085938 381.164062 282.347656 L 381.09375 303.128906 C 380.964844 306.636719 380.339844 310.34375 380.726562 313.828125 C 379.800781 313.539062 379.636719 313.605469 378.726562 313.820312 L 378.847656 269.539062 L 379.671875 269.773438 Z M 380.566406 268.957031 " fill-opacity="1" fill-rule="nonzero"/><g clip-path="url(#54250e7d91)"><path fill="#050f21" d="M 378.726562 313.820312 L 378.425781 314.054688 C 375.992188 315.4375 352.074219 314.832031 348.105469 314.222656 C 337.601562 312.609375 334.4375 306.257812 328.667969 298.460938 C 325.320312 297.382812 320.460938 298.074219 316.945312 298.097656 C 311.628906 298.136719 304.511719 297.3125 299.441406 298.738281 C 298.324219 299.90625 298.457031 301.613281 298.363281 303.195312 C 297.339844 320.558594 298.148438 338.347656 298.179688 355.746094 L 298.214844 448.011719 L 298.214844 471.316406 C 298.210938 474.5 298.894531 479.914062 297.632812 482.769531 C 297.023438 484.144531 295.742188 485.378906 294.289062 485.832031 C 292.09375 486.519531 289.371094 485.066406 287.519531 484.011719 C 283.867188 481.929688 280.402344 479.207031 276.949219 476.800781 L 250.390625 456.769531 C 213.097656 427.257812 179.316406 393.886719 151.722656 355.023438 C 134.195312 330.335938 119.007812 302.640625 110.832031 273.335938 C 107.722656 262.203125 105.019531 250.707031 103.613281 239.214844 C 102.867188 233.125 102.84375 226.808594 102.90625 220.679688 C 102.964844 215.140625 102.945312 209.519531 103.667969 204.019531 C 105.398438 190.789062 109.660156 177.546875 116.28125 165.949219 C 129.789062 142.300781 152.636719 122.355469 179.25 115.214844 C 207.722656 107.574219 239.210938 109.699219 264.957031 124.773438 C 273.765625 129.929688 282.535156 136.691406 289.546875 144.144531 C 291.769531 146.511719 294.160156 149.023438 295.558594 151.992188 C 297.019531 155.097656 297.746094 158.324219 298.078125 161.71875 C 298.457031 165.578125 298.242188 169.628906 298.238281 173.503906 L 298.234375 193.183594 L 298.144531 258.070312 L 298.164062 274.890625 C 298.1875 277.828125 297.933594 281.046875 298.660156 283.894531 C 299.757812 284.632812 301.480469 284.703125 302.789062 284.792969 C 305.5 284.976562 327.710938 285.453125 328.738281 284.679688 C 329.59375 284.035156 331.175781 280.179688 331.855469 279.058594 C 333.367188 276.578125 335.417969 273.917969 337.632812 272.027344 C 339.5 270.433594 342.066406 269.0625 344.421875 268.378906 C 351.984375 266.1875 360.949219 266.863281 368.777344 266.90625 C 371.105469 266.917969 373.988281 266.59375 376.242188 267.03125 C 377.75 267.320312 378.109375 268.351562 378.847656 269.539062 Z M 208.152344 121.558594 C 180.863281 122.667969 157.289062 133.953125 138.679688 154.058594 C 120.011719 174.234375 112.332031 200.769531 113.472656 227.863281 C 113.960938 239.480469 116.15625 251.023438 119.097656 262.246094 C 135.292969 324.113281 178.824219 378.046875 225.226562 420.460938 L 235.238281 429.417969 L 266.507812 455.15625 C 273.238281 460.394531 279.75 465.828125 287.375 469.726562 C 286.226562 458.699219 286.871094 447.367188 287.027344 436.292969 L 287.449219 388.792969 L 287.460938 219.464844 L 287.652344 177.699219 C 287.648438 172.199219 288.472656 164.972656 287.105469 159.710938 C 286.375 156.898438 284.28125 154.671875 282.335938 152.613281 C 279.046875 149.140625 275.558594 145.859375 271.839844 142.851562 C 254.0625 128.460938 231.128906 120.5625 208.152344 121.558594 Z M 208.152344 121.558594 " fill-opacity="1" fill-rule="nonzero"/></g><path fill="#1c4499" d="M 635.3125 236.996094 C 637.066406 245.148438 635.113281 253.617188 630.601562 260.492188 C 626.015625 267.476562 618.925781 272.59375 610.691406 274.28125 C 607.464844 274.941406 601.617188 275.8125 598.703125 274.195312 C 596.90625 271.585938 597.675781 265.433594 597.722656 262.289062 C 603.847656 263.214844 610.117188 263.503906 615.945312 260.996094 C 622.589844 258.136719 628.628906 252.828125 630.964844 245.808594 C 631.726562 243.511719 631.71875 240.65625 632.691406 238.523438 C 633.230469 237.339844 634.164062 237.359375 635.3125 236.996094 Z M 635.3125 236.996094 " fill-opacity="1" fill-rule="nonzero"/><path fill="#1c4499" d="M 616.074219 285.300781 C 619.371094 286.441406 621.773438 290.269531 623.242188 293.253906 C 627.3125 301.527344 628.511719 311.035156 625.390625 319.800781 C 622.375 328.261719 615.804688 336.472656 607.609375 340.363281 C 600.933594 343.53125 590.777344 345.289062 583.753906 342.511719 C 581.035156 341.4375 578.15625 338.898438 576.84375 336.234375 L 577.285156 336.148438 L 595.726562 333.558594 C 603.871094 331.574219 611.027344 325.910156 615.242188 318.746094 C 618.515625 313.179688 620.21875 306.511719 620.257812 300.082031 C 620.269531 298.339844 620.347656 296.230469 619.839844 294.554688 C 618.957031 291.621094 616.878906 288.933594 616.21875 286.023438 Z M 616.074219 285.300781 " fill-opacity="1" fill-rule="nonzero"/><path fill="#1c4499" d="M 609.964844 170.007812 C 614.507812 175.613281 616.503906 181.5 615.914062 188.78125 C 615.28125 196.535156 611.066406 204.53125 604.957031 209.351562 C 599.003906 214.050781 590.859375 215.953125 583.378906 215.058594 C 575.453125 214.105469 568.980469 209.800781 564.21875 203.527344 C 561.382812 199.789062 560.578125 195.566406 558.855469 191.3125 C 555.738281 183.613281 549.910156 177.40625 543.976562 171.785156 C 554.785156 171.875 565.28125 190.109375 572.722656 196.738281 C 578.148438 201.574219 584.761719 203.628906 591.949219 203.085938 C 597.375 202.675781 602.699219 199.605469 606.175781 195.476562 C 610.113281 190.804688 611.828125 184.90625 611.316406 178.851562 C 611.066406 175.878906 610.21875 173.007812 609.964844 170.007812 Z M 609.964844 170.007812 " fill-opacity="1" fill-rule="nonzero"/><path fill="#1c4499" d="M 555.671875 336.011719 C 566.148438 340.234375 574.300781 347.527344 578.804688 357.992188 C 583.859375 369.738281 584.773438 382.300781 579.855469 394.234375 C 575.183594 405.585938 566.226562 415.300781 554.761719 419.941406 C 552.929688 420.679688 551.382812 421.304688 549.371094 420.988281 C 547.710938 419.214844 547.375 415.890625 546.550781 413.617188 C 545.542969 410.847656 543.691406 408.132812 542.191406 405.589844 C 546.605469 405.035156 550.894531 403.75 554.765625 401.519531 C 562.210938 397.230469 567.730469 390.046875 569.976562 381.765625 C 573.265625 369.652344 570.761719 355.089844 563.160156 345.011719 C 561.078125 342.25 557.621094 339.726562 556.039062 336.738281 Z M 555.671875 336.011719 " fill-opacity="1" fill-rule="nonzero"/><path fill="#1c4499" d="M 445.347656 370.761719 C 445.476562 374.726562 444.261719 386.980469 447.148438 389.457031 C 450.476562 392.316406 456.332031 393.03125 456.972656 398.191406 C 457.40625 401.675781 457.257812 405.414062 457.25 408.925781 L 456.839844 429.972656 L 457.324219 451.5 C 457.476562 455.742188 456.917969 460.152344 458.421875 464.195312 C 460.324219 469.316406 463.574219 473.054688 468.523438 475.449219 C 474.316406 478.253906 480.40625 477.445312 486.492188 476.445312 L 486.117188 476.78125 C 481.511719 480.871094 474.59375 482.804688 468.457031 482.316406 C 461.664062 481.78125 455.28125 479.234375 450.835938 473.921875 C 448.417969 471.035156 446.441406 467.191406 445.746094 463.472656 C 445.070312 459.871094 445.261719 455.882812 445.1875 452.226562 L 444.949219 430.476562 L 444.761719 394.011719 C 444.78125 386.304688 444.671875 378.441406 445.347656 370.761719 Z M 445.347656 370.761719 " fill-opacity="1" fill-rule="nonzero"/><path fill="#fefefe" d="M 542.191406 405.589844 C 539.460938 402.410156 536.441406 399.117188 532.980469 396.71875 C 530.878906 395.269531 527.300781 394.101562 525.960938 391.886719 C 525.289062 390.761719 525.675781 387.585938 525.675781 386.132812 C 525.671875 373.378906 518.957031 364.808594 510.445312 356.132812 C 511.660156 354.476562 514.398438 353.152344 516.070312 351.878906 C 520.546875 348.464844 524.640625 344.234375 527.664062 339.472656 C 529.222656 337.019531 530.597656 332.59375 533.542969 331.632812 C 539.859375 329.578125 550.042969 333.085938 555.671875 336.011719 L 556.039062 336.738281 C 557.621094 339.726562 561.078125 342.25 563.160156 345.011719 C 570.761719 355.089844 573.265625 369.652344 569.976562 381.765625 C 567.730469 390.046875 562.210938 397.230469 554.765625 401.519531 C 550.894531 403.75 546.605469 405.035156 542.191406 405.589844 Z M 542.191406 405.589844 " fill-opacity="1" fill-rule="nonzero"/><path fill="#1c4499" d="M 491.648438 270.96875 C 499.914062 271.777344 507.78125 275.984375 513.429688 281.984375 C 520.675781 289.675781 525.886719 301.0625 525.503906 311.777344 C 525.082031 323.480469 519.566406 334.417969 511.0625 342.367188 C 503.355469 349.578125 493.777344 352.585938 483.335938 352.230469 C 472.0625 351.84375 461.789062 347.695312 454.070312 339.332031 C 450.234375 335.175781 445.855469 328.929688 444.855469 323.253906 C 443.824219 317.425781 444.636719 310.769531 444.710938 304.839844 L 444.789062 273.597656 L 444.761719 199.953125 L 444.847656 162.628906 C 445.339844 152.679688 449.226562 144.746094 456.574219 138.085938 L 456.714844 181.992188 L 456.710938 258.925781 L 456.714844 286.984375 C 456.714844 295.574219 456.332031 304.066406 458.066406 312.535156 C 459.457031 319.308594 462.90625 325.820312 467.933594 330.601562 C 472.875 335.304688 479.152344 337.984375 486.042969 337.777344 C 493.804688 337.542969 501.757812 334.800781 507.054688 328.9375 C 513.042969 322.308594 514.46875 312.277344 513.910156 303.675781 C 513.304688 294.359375 509.21875 284.734375 502.128906 278.550781 Z M 491.648438 270.96875 " fill-opacity="1" fill-rule="nonzero"/><path fill="#fefefe" d="M 444.675781 370.761719 L 444.679688 354.914062 C 444.683594 352.574219 444.3125 349.550781 444.945312 347.300781 C 446.085938 347.152344 446.679688 347.285156 447.648438 347.960938 C 449.59375 349.320312 451.292969 351.15625 453.199219 352.601562 C 457.40625 355.792969 462.371094 358.496094 467.414062 360.070312 C 473.25 361.890625 479.640625 363.179688 485.789062 362.832031 C 488.773438 362.660156 492.144531 361.90625 495.105469 362.351562 C 506.027344 363.984375 512.910156 372.800781 514.054688 383.429688 C 514.503906 387.574219 514.460938 391.234375 513.617188 395.339844 C 510.402344 403.378906 505.996094 409.503906 497.875 413.054688 C 493.695312 414.878906 489.601562 415.304688 485.085938 415.328125 L 479.214844 414.554688 C 477.628906 414.339844 476.109375 414.464844 474.773438 415.433594 C 473.65625 416.242188 472.714844 417.621094 472.503906 419 C 472.28125 420.472656 472.691406 421.625 473.621094 422.761719 C 476.054688 425.738281 480.683594 426.167969 484.3125 426.429688 C 494.621094 427.179688 505.078125 423.648438 512.765625 416.734375 C 514.9375 414.777344 516.855469 412.542969 518.546875 410.160156 C 519.609375 408.660156 520.730469 406.207031 522.140625 405.078125 C 522.675781 404.648438 522.976562 404.566406 523.660156 404.585938 C 526.441406 404.664062 529.429688 408.339844 531.15625 410.339844 C 535.941406 415.894531 538.738281 423.433594 538.058594 430.792969 C 537.957031 431.894531 537.679688 432.960938 537.378906 434.023438 C 535.84375 441.117188 532.0625 447.546875 525.886719 451.570312 C 522.226562 453.953125 515.527344 457.195312 511.078125 456.066406 C 509.011719 455.542969 507.464844 453.96875 506.445312 452.167969 C 505.46875 450.6875 504.820312 449.554688 502.988281 449.128906 C 501.09375 448.683594 499.660156 448.9375 498.023438 449.941406 C 496.492188 452.085938 496.097656 454.28125 495.546875 456.796875 C 493.757812 464.945312 492.992188 471.320312 485.816406 476.445312 C 479.738281 477.445312 473.644531 478.253906 467.851562 475.449219 C 462.902344 473.054688 459.652344 469.316406 457.75 464.195312 C 456.246094 460.152344 456.804688 455.742188 456.652344 451.5 L 456.167969 429.972656 L 456.578125 408.925781 C 456.585938 405.414062 456.734375 401.675781 456.300781 398.191406 C 455.660156 393.03125 449.804688 392.316406 446.476562 389.457031 C 443.589844 386.980469 444.804688 374.726562 444.675781 370.761719 Z M 444.675781 370.761719 " fill-opacity="1" fill-rule="nonzero"/><path fill="#1c4499" d="M 485.085938 415.328125 C 485.03125 412.832031 484.546875 410.648438 485.40625 408.320312 C 487.429688 406.425781 490.25 406.757812 492.890625 406.722656 C 496.589844 406.671875 499.933594 406.875 503.4375 405.507812 C 506.671875 404.25 509.394531 402.15625 510.769531 398.902344 C 511.144531 398.011719 511.453125 397.285156 512.023438 396.492188 L 512.945312 396.683594 C 509.730469 404.726562 505.996094 410.847656 497.875 414.398438 C 493.695312 416.222656 489.601562 415.304688 485.085938 415.328125 Z M 485.085938 415.328125 " fill-opacity="1" fill-rule="nonzero"/><path fill="#1c4499" d="M 506.445312 452.839844 L 510.40625 452.25 C 520.515625 450.703125 528.640625 445.554688 532.089844 435.652344 C 532.679688 433.949219 532.675781 431.234375 533.679688 429.859375 L 534.402344 429.804688 C 536.105469 430.730469 536.660156 432.976562 537.378906 434.695312 C 535.84375 441.789062 532.0625 448.21875 525.886719 452.242188 C 522.226562 454.625 515.527344 457.867188 511.078125 456.738281 C 509.011719 456.214844 507.464844 454.640625 506.445312 452.839844 Z M 506.445312 452.839844 " fill-opacity="1" fill-rule="nonzero"/><path fill="#fefefe" d="M 456.574219 138.085938 C 461.832031 132.40625 469.148438 129.148438 476.886719 128.804688 C 485.542969 128.417969 492.699219 130.925781 499.476562 136.242188 C 501.292969 137.664062 503.238281 139.625 505.414062 140.464844 C 507.332031 141.207031 509.214844 140.453125 510.550781 138.988281 C 511.644531 137.792969 512.195312 136.496094 512.058594 134.875 C 511.695312 130.648438 503.257812 127.359375 506.210938 123.714844 C 511.195312 117.566406 521.324219 112.726562 529.164062 112.128906 C 539.535156 111.335938 550.019531 114.15625 557.984375 121.019531 C 565.503906 127.5 569.691406 137.234375 570.355469 147.027344 C 570.792969 153.425781 569.390625 159.917969 566.386719 165.574219 C 565.390625 167.441406 563.6875 169.640625 563.410156 171.753906 C 563.183594 173.511719 563.929688 175.128906 565.207031 176.304688 C 566.527344 177.519531 567.71875 177.933594 569.480469 177.949219 C 573.117188 176.601562 575.808594 172.390625 577.339844 168.976562 C 579.007812 165.25 578.691406 160.34375 583.164062 158.824219 C 588.308594 157.070312 596.964844 159.367188 601.566406 161.882812 C 605.128906 163.828125 608.90625 166.921875 610.636719 170.679688 C 610.890625 173.679688 611.738281 176.550781 611.992188 179.523438 C 612.5 185.578125 610.785156 191.476562 606.847656 196.148438 C 603.371094 200.277344 598.046875 203.347656 592.621094 203.757812 C 585.433594 204.300781 578.820312 202.246094 573.394531 197.410156 C 565.953125 190.78125 555.457031 172.546875 544.648438 172.457031 C 532.902344 167.871094 520.65625 164.332031 508.441406 169.671875 C 498.21875 174.144531 490.1875 182.246094 486.117188 192.667969 C 484.164062 197.664062 483.0625 211.378906 485.519531 216.300781 C 486.160156 217.585938 487.335938 218.550781 488.671875 219.042969 C 490.054688 219.550781 492.476562 219.207031 493.707031 218.417969 C 494.777344 217.734375 495.453125 216.613281 495.65625 215.363281 C 496.453125 210.546875 494.945312 205.398438 495.671875 200.503906 L 495.765625 199.828125 C 496.761719 193.289062 501.140625 187.238281 506.421875 183.402344 C 509.960938 180.832031 514.097656 179.09375 518.421875 178.417969 L 519.0625 178.308594 C 526.066406 177.238281 533.441406 178.933594 539.128906 183.195312 C 547.621094 189.558594 548.59375 198.148438 553.339844 206.839844 C 561.414062 221.625 577.890625 229.203125 594.460938 226.832031 L 597.519531 226.242188 C 601.386719 225.410156 605.566406 223.453125 608.839844 221.257812 C 611.121094 219.726562 614.386719 216.425781 617.011719 215.816406 C 618.597656 215.449219 619.910156 215.964844 621.234375 216.777344 C 628.753906 221.402344 632.8125 229.492188 635.3125 237.667969 C 634.164062 238.03125 633.230469 238.011719 632.691406 239.195312 C 631.71875 241.328125 631.726562 244.183594 630.964844 246.480469 C 628.628906 253.5 622.589844 258.808594 615.945312 261.667969 C 610.117188 264.179688 603.847656 263.886719 597.722656 262.960938 C 594.242188 251.703125 589.777344 243.183594 578.875 237.488281 C 576.921875 236.46875 574.472656 235.316406 572.253906 236.125 C 570.601562 236.726562 569.605469 237.996094 568.984375 239.597656 C 566.609375 245.707031 575.320312 247.777344 578.867188 250.984375 C 581.359375 253.238281 582.769531 255.765625 584.089844 258.808594 C 586.75 263.902344 587.140625 269.914062 585.460938 275.394531 C 583.617188 281.417969 578.75 286.621094 573.207031 289.476562 C 571.203125 290.511719 569.230469 291.160156 566.992188 291.492188 L 566.296875 291.601562 C 563.441406 291.996094 560.4375 291.554688 557.636719 290.957031 C 554.402344 290.261719 551.707031 289.179688 548.511719 290.589844 L 548.355469 290.902344 C 547.503906 292.859375 546.75 296.261719 547.75 298.265625 C 548.765625 300.289062 552.121094 301.257812 554.121094 301.671875 C 565.53125 304.050781 577.039062 302.527344 585.730469 294.25 C 588.660156 291.464844 590.910156 288.226562 594.292969 285.96875 C 598.667969 286.238281 602.808594 287.15625 607.230469 286.710938 C 609.996094 286.429688 614.242188 285.011719 616.746094 285.972656 L 616.890625 286.695312 C 617.550781 289.605469 619.628906 292.292969 620.511719 295.226562 C 621.019531 296.902344 620.941406 299.011719 620.929688 300.753906 C 620.890625 307.183594 619.1875 313.855469 615.914062 319.417969 C 611.699219 326.585938 604.542969 332.246094 596.398438 334.230469 L 577.957031 336.820312 L 577.515625 336.90625 C 569.097656 329.652344 557.660156 323.109375 546.542969 321.585938 C 543.933594 321.226562 538.808594 321.871094 536.640625 320.617188 C 535.824219 320.144531 535.976562 318.855469 536.046875 318.039062 C 536.800781 309.117188 536.394531 300.886719 533.300781 292.398438 C 528.5625 279.40625 517.75 268.527344 505.191406 262.9375 C 494.230469 258.0625 479.941406 256.1875 468.578125 260.949219 C 466.917969 261.644531 465.121094 262.550781 464.519531 264.386719 C 464.003906 265.960938 464.328125 267.570312 465 269.039062 C 465.625 270.410156 466.707031 271.472656 468.253906 271.691406 C 470.214844 271.972656 472.660156 271.195312 474.574219 270.742188 C 480.503906 269.335938 485.84375 268.867188 491.648438 270.96875 L 502.128906 278.550781 C 509.21875 284.734375 513.304688 294.359375 513.910156 303.675781 C 514.46875 312.28125 513.042969 322.308594 507.054688 328.9375 C 501.757812 334.800781 493.804688 337.542969 486.042969 337.777344 C 479.152344 337.984375 472.875 335.304688 467.933594 330.601562 C 462.90625 325.820312 459.457031 319.308594 458.066406 312.535156 C 456.332031 304.066406 456.714844 295.574219 456.714844 286.984375 L 456.710938 258.925781 L 456.714844 181.992188 Z M 456.574219 138.085938 " fill-opacity="1" fill-rule="nonzero"/><path fill="#1c4499" d="M 584.761719 259.480469 C 587.421875 264.574219 587.8125 270.585938 586.132812 276.066406 C 584.289062 282.09375 579.421875 287.292969 573.882812 290.148438 C 571.875 291.183594 569.902344 291.832031 567.664062 292.164062 L 566.96875 292.273438 C 564.113281 292.667969 561.109375 292.226562 558.308594 291.628906 C 555.074219 290.933594 552.378906 289.851562 549.183594 291.261719 L 548.835938 290.894531 C 547.625 289.269531 547.339844 286.128906 547.765625 284.199219 C 548.210938 282.203125 549.363281 280.578125 551.015625 279.425781 C 553.949219 279.597656 556.710938 281.769531 559.722656 282.332031 C 565.546875 283.414062 571.097656 282.277344 575.925781 278.847656 C 578.742188 276.851562 581.839844 273.632812 582.96875 270.335938 C 584.050781 267.179688 584.21875 262.855469 584.761719 259.480469 Z M 584.761719 259.480469 " fill-opacity="1" fill-rule="nonzero"/><g fill="#000000" fill-opacity="1"><g transform="translate(112.0128, 617.276548)"><g><path d="M 51.90625 -16.359375 L 23.21875 -16.359375 L 17.765625 0 L 0.375 0 L 29.9375 -79.375 L 45.09375 -79.375 L 74.796875 0 L 57.40625 0 Z M 27.640625 -29.609375 L 47.484375 -29.609375 L 37.515625 -59.3125 Z M 27.640625 -29.609375 "/></g></g></g><g fill="#000000" fill-opacity="1"><g transform="translate(181.670133, 617.276548)"><g><path d="M 69.40625 -26.4375 C 68.789062 -17.894531 65.632812 -11.171875 59.9375 -6.265625 C 54.25 -1.359375 46.753906 1.09375 37.453125 1.09375 C 27.273438 1.09375 19.269531 -2.332031 13.4375 -9.1875 C 7.601562 -16.039062 4.6875 -25.445312 4.6875 -37.40625 L 4.6875 -42.25 C 4.6875 -49.882812 6.03125 -56.609375 8.71875 -62.421875 C 11.40625 -68.234375 15.25 -72.691406 20.25 -75.796875 C 25.25 -78.910156 31.054688 -80.46875 37.671875 -80.46875 C 46.828125 -80.46875 54.203125 -78.015625 59.796875 -73.109375 C 65.398438 -68.203125 68.640625 -61.316406 69.515625 -52.453125 L 53.15625 -52.453125 C 52.757812 -57.578125 51.332031 -61.289062 48.875 -63.59375 C 46.425781 -65.90625 42.691406 -67.0625 37.671875 -67.0625 C 32.222656 -67.0625 28.144531 -65.109375 25.4375 -61.203125 C 22.726562 -57.296875 21.335938 -51.234375 21.265625 -43.015625 L 21.265625 -37.015625 C 21.265625 -28.441406 22.5625 -22.171875 25.15625 -18.203125 C 27.757812 -14.242188 31.859375 -12.265625 37.453125 -12.265625 C 42.503906 -12.265625 46.273438 -13.414062 48.765625 -15.71875 C 51.253906 -18.03125 52.679688 -21.601562 53.046875 -26.4375 Z M 69.40625 -26.4375 "/></g></g></g><g fill="#000000" fill-opacity="1"><g transform="translate(249.255706, 617.276548)"><g><path d="M 51.90625 -16.359375 L 23.21875 -16.359375 L 17.765625 0 L 0.375 0 L 29.9375 -79.375 L 45.09375 -79.375 L 74.796875 0 L 57.40625 0 Z M 27.640625 -29.609375 L 47.484375 -29.609375 L 37.515625 -59.3125 Z M 27.640625 -29.609375 "/></g></g></g><g fill="#000000" fill-opacity="1"><g transform="translate(318.913039, 617.276548)"><g><path d="M 7.09375 0 L 7.09375 -79.375 L 31.515625 -79.375 C 38.492188 -79.375 44.734375 -77.800781 50.234375 -74.65625 C 55.742188 -71.519531 60.039062 -67.050781 63.125 -61.25 C 66.21875 -55.457031 67.765625 -48.867188 67.765625 -41.484375 L 67.765625 -37.84375 C 67.765625 -30.457031 66.242188 -23.894531 63.203125 -18.15625 C 60.171875 -12.414062 55.894531 -7.960938 50.375 -4.796875 C 44.851562 -1.628906 38.617188 -0.03125 31.671875 0 Z M 23.4375 -66.125 L 23.4375 -13.140625 L 31.34375 -13.140625 C 37.738281 -13.140625 42.625 -15.226562 46 -19.40625 C 49.382812 -23.582031 51.113281 -29.5625 51.1875 -37.34375 L 51.1875 -41.546875 C 51.1875 -49.609375 49.515625 -55.71875 46.171875 -59.875 C 42.828125 -64.039062 37.941406 -66.125 31.515625 -66.125 Z M 23.4375 -66.125 "/></g></g></g><g fill="#000000" fill-opacity="1"><g transform="translate(386.007932, 617.276548)"><g><path d="M 54.84375 -34.40625 L 23.4375 -34.40625 L 23.4375 -13.140625 L 60.296875 -13.140625 L 60.296875 0 L 7.09375 0 L 7.09375 -79.375 L 60.1875 -79.375 L 60.1875 -66.125 L 23.4375 -66.125 L 23.4375 -47.21875 L 54.84375 -47.21875 Z M 54.84375 -34.40625 "/></g></g></g><g fill="#000000" fill-opacity="1"><g transform="translate(443.343743, 617.276548)"><g><path d="M 28.453125 -79.375 L 48.84375 -21.8125 L 69.125 -79.375 L 90.609375 -79.375 L 90.609375 0 L 74.203125 0 L 74.203125 -21.703125 L 75.84375 -59.15625 L 54.40625 0 L 43.171875 0 L 21.8125 -59.09375 L 23.4375 -21.703125 L 23.4375 0 L 7.09375 0 L 7.09375 -79.375 Z M 28.453125 -79.375 "/></g></g></g><g fill="#000000" fill-opacity="1"><g transform="translate(535.681399, 617.276548)"><g><path d="M 24.484375 0 L 8.125 0 L 8.125 -79.375 L 24.484375 -79.375 Z M 24.484375 0 "/></g></g></g><g fill="#000000" fill-opacity="1"><g transform="translate(562.758605, 617.276548)"><g><path d="M 51.90625 -16.359375 L 23.21875 -16.359375 L 17.765625 0 L 0.375 0 L 29.9375 -79.375 L 45.09375 -79.375 L 74.796875 0 L 57.40625 0 Z M 27.640625 -29.609375 L 47.484375 -29.609375 L 37.515625 -59.3125 Z M 27.640625 -29.609375 "/></g></g></g><g fill="#000000" fill-opacity="1"><g transform="translate(196.416217, 698.21276)"><g><path d="M 6.078125 0 L 6.078125 -52.4375 L 20.890625 -52.4375 C 25.453125 -52.4375 29.484375 -51.425781 32.984375 -49.40625 C 36.492188 -47.382812 39.203125 -44.515625 41.109375 -40.796875 C 43.015625 -37.078125 43.976562 -32.804688 44 -27.984375 L 44 -24.625 C 44 -19.6875 43.046875 -15.351562 41.140625 -11.625 C 39.234375 -7.90625 36.507812 -5.050781 32.96875 -3.0625 C 29.425781 -1.070312 25.300781 -0.0507812 20.59375 0 Z M 13 -46.734375 L 13 -5.65625 L 20.28125 -5.65625 C 25.601562 -5.65625 29.742188 -7.3125 32.703125 -10.625 C 35.671875 -13.9375 37.15625 -18.65625 37.15625 -24.78125 L 37.15625 -27.84375 C 37.15625 -33.789062 35.753906 -38.414062 32.953125 -41.71875 C 30.160156 -45.019531 26.195312 -46.691406 21.0625 -46.734375 Z M 13 -46.734375 "/></g></g></g><g fill="#000000" fill-opacity="1"><g transform="translate(241.160335, 698.21276)"><g><path d="M 35.71875 -24.234375 L 13 -24.234375 L 13 -5.65625 L 39.390625 -5.65625 L 39.390625 0 L 6.078125 0 L 6.078125 -52.4375 L 39.03125 -52.4375 L 39.03125 -46.734375 L 13 -46.734375 L 13 -29.890625 L 35.71875 -29.890625 Z M 35.71875 -24.234375 "/></g></g></g><g fill="#000000" fill-opacity="1"><g transform="translate(279.459183, 698.21276)"><g/></g></g><g fill="#000000" fill-opacity="1"><g transform="translate(294.101366, 698.21276)"><g><path d="M 13.03125 -5.65625 L 37.890625 -5.65625 L 37.890625 0 L 6.078125 0 L 6.078125 -52.4375 L 13.03125 -52.4375 Z M 13.03125 -5.65625 "/></g></g></g><g fill="#000000" fill-opacity="1"><g transform="translate(330.167774, 698.21276)"><g><path d="M 13.5 0 L 6.59375 0 L 6.59375 -52.4375 L 13.5 -52.4375 Z M 13.5 0 "/></g></g></g><g fill="#000000" fill-opacity="1"><g transform="translate(346.610312, 698.21276)"><g><path d="M 6.078125 0 L 6.078125 -52.4375 L 20.890625 -52.4375 C 25.453125 -52.4375 29.484375 -51.425781 32.984375 -49.40625 C 36.492188 -47.382812 39.203125 -44.515625 41.109375 -40.796875 C 43.015625 -37.078125 43.976562 -32.804688 44 -27.984375 L 44 -24.625 C 44 -19.6875 43.046875 -15.351562 41.140625 -11.625 C 39.234375 -7.90625 36.507812 -5.050781 32.96875 -3.0625 C 29.425781 -1.070312 25.300781 -0.0507812 20.59375 0 Z M 13 -46.734375 L 13 -5.65625 L 20.28125 -5.65625 C 25.601562 -5.65625 29.742188 -7.3125 32.703125 -10.625 C 35.671875 -13.9375 37.15625 -18.65625 37.15625 -24.78125 L 37.15625 -27.84375 C 37.15625 -33.789062 35.753906 -38.414062 32.953125 -41.71875 C 30.160156 -45.019531 26.195312 -46.691406 21.0625 -46.734375 Z M 13 -46.734375 "/></g></g></g><g fill="#000000" fill-opacity="1"><g transform="translate(391.35443, 698.21276)"><g><path d="M 35.71875 -24.234375 L 13 -24.234375 L 13 -5.65625 L 39.390625 -5.65625 L 39.390625 0 L 6.078125 0 L 6.078125 -52.4375 L 39.03125 -52.4375 L 39.03125 -46.734375 L 13 -46.734375 L 13 -29.890625 L 35.71875 -29.890625 Z M 35.71875 -24.234375 "/></g></g></g><g fill="#000000" fill-opacity="1"><g transform="translate(429.653277, 698.21276)"><g><path d="M 25.3125 -21.203125 L 13 -21.203125 L 13 0 L 6.046875 0 L 6.046875 -52.4375 L 23.40625 -52.4375 C 29.3125 -52.4375 33.851562 -51.085938 37.03125 -48.390625 C 40.21875 -45.703125 41.8125 -41.789062 41.8125 -36.65625 C 41.8125 -33.394531 40.925781 -30.550781 39.15625 -28.125 C 37.394531 -25.695312 34.941406 -23.882812 31.796875 -22.6875 L 44.109375 -0.4375 L 44.109375 0 L 36.6875 0 Z M 13 -26.859375 L 23.625 -26.859375 C 27.050781 -26.859375 29.78125 -27.742188 31.8125 -29.515625 C 33.84375 -31.296875 34.859375 -33.675781 34.859375 -36.65625 C 34.859375 -39.894531 33.890625 -42.378906 31.953125 -44.109375 C 30.023438 -45.835938 27.238281 -46.710938 23.59375 -46.734375 L 13 -46.734375 Z M 13 -26.859375 "/></g></g></g><g fill="#000000" fill-opacity="1"><g transform="translate(471.444813, 698.21276)"><g><path d="M 35.71875 -24.234375 L 13 -24.234375 L 13 -5.65625 L 39.390625 -5.65625 L 39.390625 0 L 6.078125 0 L 6.078125 -52.4375 L 39.03125 -52.4375 L 39.03125 -46.734375 L 13 -46.734375 L 13 -29.890625 L 35.71875 -29.890625 Z M 35.71875 -24.234375 "/></g></g></g><g fill="#000000" fill-opacity="1"><g transform="translate(509.743661, 698.21276)"><g><path d="M 21.53125 -23.375 C 15.601562 -25.070312 11.285156 -27.160156 8.578125 -29.640625 C 5.878906 -32.128906 4.53125 -35.203125 4.53125 -38.859375 C 4.53125 -42.984375 6.179688 -46.394531 9.484375 -49.09375 C 12.785156 -51.800781 17.078125 -53.15625 22.359375 -53.15625 C 25.960938 -53.15625 29.175781 -52.457031 32 -51.0625 C 34.820312 -49.664062 37.003906 -47.742188 38.546875 -45.296875 C 40.097656 -42.847656 40.875 -40.171875 40.875 -37.265625 L 33.921875 -37.265625 C 33.921875 -40.441406 32.910156 -42.9375 30.890625 -44.75 C 28.878906 -46.5625 26.035156 -47.46875 22.359375 -47.46875 C 18.953125 -47.46875 16.296875 -46.710938 14.390625 -45.203125 C 12.484375 -43.703125 11.53125 -41.625 11.53125 -38.96875 C 11.53125 -36.832031 12.4375 -35.023438 14.25 -33.546875 C 16.0625 -32.066406 19.144531 -30.710938 23.5 -29.484375 C 27.851562 -28.265625 31.257812 -26.914062 33.71875 -25.4375 C 36.1875 -23.96875 38.015625 -22.25 39.203125 -20.28125 C 40.390625 -18.3125 40.984375 -15.992188 40.984375 -13.328125 C 40.984375 -9.078125 39.328125 -5.671875 36.015625 -3.109375 C 32.703125 -0.554688 28.269531 0.71875 22.71875 0.71875 C 19.125 0.71875 15.765625 0.03125 12.640625 -1.34375 C 9.515625 -2.726562 7.101562 -4.617188 5.40625 -7.015625 C 3.71875 -9.421875 2.875 -12.148438 2.875 -15.203125 L 9.828125 -15.203125 C 9.828125 -12.023438 11 -9.519531 13.34375 -7.6875 C 15.6875 -5.851562 18.8125 -4.9375 22.71875 -4.9375 C 26.375 -4.9375 29.171875 -5.679688 31.109375 -7.171875 C 33.054688 -8.660156 34.03125 -10.6875 34.03125 -13.25 C 34.03125 -15.820312 33.128906 -17.804688 31.328125 -19.203125 C 29.523438 -20.609375 26.257812 -22 21.53125 -23.375 Z M 21.53125 -23.375 "/></g></g></g></svg>